<?xml version="1.0" standalone="no"?>
<!DOCTYPE svg PUBLIC "-//W3C//DTD SVG 20010904//EN"
 "http://www.w3.org/TR/2001/REC-SVG-20010904/DTD/svg10.dtd">
<svg version="1.0" xmlns="http://www.w3.org/2000/svg"
 width="256.000000pt" height="256.000000pt" viewBox="0 0 256.000000 256.000000"
 preserveAspectRatio="xMidYMid meet">
<metadata>
Created by potrace 1.11, written by Peter Selinger 2001-2013
</metadata>
<g transform="translate(0.000000,256.000000) scale(0.100000,-0.100000)"
fill="#000000" stroke="none">
<path d="M1160 2518 c-19 -5 -82 -10 -140 -12 -89 -2 -114 -6 -168 -29 -78
-34 -182 -104 -182 -122 0 -8 -5 -17 -12 -21 -7 -5 -8 -3 -3 6 6 10 3 10 -12
-1 -31 -22 -108 -110 -126 -144 -22 -43 -49 -152 -45 -184 3 -24 5 -23 36 25
20 31 47 58 69 68 19 9 37 26 40 37 4 14 12 19 24 16 11 -3 19 0 19 6 0 6 10
21 22 34 25 26 19 40 -11 24 -23 -13 -34 -1 -25 24 5 11 9 13 14 5 5 -8 20 -5
53 10 50 23 77 49 81 76 2 11 12 18 29 18 22 1 26 -2 21 -16 -3 -11 0 -18 8
-18 21 0 58 -46 57 -71 -6 -178 -6 -174 24 -177 34 -4 35 -19 2 -34 -20 -9
-22 -14 -14 -30 5 -10 15 -16 20 -12 17 10 99 141 99 157 0 8 -14 33 -31 56
-31 44 -36 77 -7 47 24 -23 26 -21 26 30 0 38 6 52 31 78 17 17 44 39 60 49
29 17 30 17 37 -5 6 -20 9 -18 29 22 l22 43 6 -32 c5 -23 12 -31 28 -31 12 0
39 -18 62 -40 22 -22 42 -38 45 -36 2 3 14 0 25 -6 12 -6 51 -10 87 -9 69 2
87 -7 118 -54 7 -11 21 -33 32 -50 30 -45 26 -55 -22 -56 l-43 -1 50 -9 c32
-5 52 -4 56 2 4 7 12 4 23 -6 17 -17 52 -13 41 5 -3 5 2 21 11 34 9 14 14 31
11 38 -2 8 -12 0 -23 -19 -27 -47 -40 -44 -87 20 -25 34 -28 44 -24 98 2 33 8
64 13 69 5 5 27 12 50 15 39 7 42 5 88 -46 59 -66 77 -100 79 -151 2 -33 -2
-41 -16 -44 -25 -3 -57 -33 -57 -53 -1 -14 -2 -13 -11 2 -14 24 -28 22 -22 -3
3 -12 27 -39 52 -60 26 -22 47 -49 48 -61 2 -21 43 -89 54 -89 14 0 39 90 39
142 0 83 -42 200 -100 278 -70 94 -108 125 -191 155 -91 32 -176 41 -252 26
-51 -9 -65 -8 -110 9 -57 22 -57 22 -107 8z m-103 -108 c-14 -11 -29 -20 -34
-20 -11 1 37 40 49 40 6 0 -1 -9 -15 -20z m303 -25 c0 -8 -4 -15 -10 -15 -5 0
-10 7 -10 15 0 8 5 15 10 15 6 0 10 -7 10 -15z m-630 -9 c0 -3 -4 -8 -10 -11
-5 -3 -10 -1 -10 4 0 6 5 11 10 11 6 0 10 -2 10 -4z m17 -53 c-3 -10 -5 -2 -5
17 0 19 2 27 5 18 2 -10 2 -26 0 -35z"/>
<path d="M1350 2306 c0 -9 5 -16 10 -16 6 0 10 4 10 9 0 6 -4 13 -10 16 -5 3
-10 -1 -10 -9z"/>
<path d="M793 2296 c-13 -6 -23 -16 -23 -23 0 -15 16 -17 25 -3 3 6 15 10 26
10 10 0 19 7 19 15 0 17 -15 18 -47 1z"/>
<path d="M1220 2221 c0 -5 7 -12 16 -15 14 -5 15 -4 4 9 -14 17 -20 19 -20 6z"/>
<path d="M1250 2077 c-16 -27 -25 -34 -42 -29 -18 4 -20 2 -13 -14 4 -10 8
-26 9 -34 1 -9 6 -21 10 -28 4 -7 7 -41 6 -75 -1 -34 -1 -66 1 -72 1 -5 3 -41
4 -80 1 -38 3 -122 5 -185 4 -123 -8 -241 -34 -330 -9 -30 -13 -69 -10 -87 6
-34 11 -32 -151 -73 -27 -7 -54 -16 -60 -20 -5 -4 -43 -18 -83 -31 -40 -13
-71 -28 -69 -34 2 -6 40 -10 93 -11 49 0 112 -4 139 -8 45 -7 362 25 385 39 4
2 22 0 41 -6 79 -25 147 -36 164 -27 9 6 27 7 40 4 15 -4 25 -1 29 9 3 8 12
15 21 15 21 0 19 12 -5 38 -17 18 -32 22 -78 22 -49 0 -129 10 -182 22 -33 7
-54 63 -27 74 10 3 11 25 5 92 -4 48 -7 132 -7 187 0 55 -4 120 -9 145 -5 29
-5 52 1 62 8 11 5 29 -10 64 -30 70 -39 124 -22 135 12 7 11 13 -3 36 -48 83
-67 127 -62 147 3 15 -5 31 -30 55 l-35 34 -21 -36z m115 -684 c1 -49 8 -100
15 -113 l13 -25 -24 20 c-61 50 -78 69 -71 79 4 6 9 25 11 41 4 41 34 105 45
95 5 -5 9 -48 11 -97z m-24 -162 c23 -23 29 -38 29 -71 0 -29 -4 -40 -12 -37
-8 2 -12 17 -10 35 3 27 0 32 -17 32 -14 0 -21 -6 -21 -20 0 -13 -5 -18 -15
-14 -12 5 -13 9 -4 20 9 11 9 21 0 40 -6 14 -11 29 -11 34 0 20 32 9 61 -19z
m-11 -171 c0 -5 -4 -10 -9 -10 -6 0 -13 5 -16 10 -3 6 1 10 9 10 9 0 16 -4 16
-10z"/>
<path d="M1586 2093 c9 -10 12 -19 6 -21 -7 -2 -7 -14 -1 -35 14 -50 11 -65
-8 -37 -9 14 -24 32 -32 40 -13 13 -14 12 -8 -12 5 -18 3 -30 -6 -35 -18 -10
-41 -53 -28 -53 10 0 25 -47 22 -72 -3 -25 6 -22 34 10 30 35 41 23 26 -28
-11 -38 -10 -44 17 -88 16 -26 35 -47 43 -47 15 0 32 44 44 112 7 44 -5 64
-63 103 -19 13 -20 15 -6 23 10 6 19 5 23 -1 3 -6 19 -14 35 -18 27 -6 29 -5
22 17 -4 13 -12 44 -19 69 -13 47 -60 90 -99 90 -18 0 -18 -1 -2 -17z"/>
<path d="M601 1962 c-24 -37 -42 -132 -24 -132 5 0 26 9 48 20 31 16 42 29 52
63 16 54 16 62 -2 47 -11 -9 -17 -9 -28 2 -8 7 -16 19 -18 25 -2 7 -15 -4 -28
-25z"/>
<path d="M693 1884 l-21 -28 27 -26 c15 -14 32 -33 37 -42 5 -10 14 -14 21
-10 10 6 8 17 -6 47 -10 22 -22 51 -28 64 l-9 24 -21 -29z"/>
<path d="M633 1819 c-38 -24 -47 -48 -38 -97 8 -43 42 -102 58 -102 7 0 25 25
42 55 l29 55 -19 38 c-11 20 -23 39 -26 42 -3 3 -8 10 -10 17 -3 9 -13 6 -36
-8z"/>
</g>
</svg>
